# xmcd CD database file
#
# Track frame offsets:
#	150
#	23730
#	43640
#	64815
#	86132
#	112032
#	130579
#	151071
#	170475
#	191883
#	211135
#	228727
#	250762
#	271400
#	289890
#	310757
#
# Disc length: 4394 seconds
#
# Revision: 0
# Processed by: cddbd v1.5.1PL2 Copyright (c) Steve Scherf et al.
# Submitted via: CDex 1.70beta2
#
DISCID=e2112810
DTITLE=Celine Dion - Romantic Ballads
DYEAR=1999
DGENRE=Blues
TTITLE0=Let’s Talk About Love
TTITLE1=Le Ballet
TTITLE2=My Heart Will Go On
TTITLE3=On Traverse Un Mirror
TTITLE4=The Power Of Love
TTITLE5=Treat Her Like A Lady
TTITLE6=Make You Happy
TTITLE7=Les Chemins De Ma Maison
TTITLE8=I Hate You Then I Love You
TTITLE9=Pour Que Tu’m’aimes Encore
TTITLE10=Paul Et Virginie
TTITLE11=Tell Him
TTITLE12=Le Fils De Superman
TTITLE13=C’est Pour Vivre
TTITLE14=Benjamin
TTITLE15=Priere Paienne
EXTD=YEAR: 1999
EXTT0=
EXTT1=
EXTT2=
EXTT3=
EXTT4=
EXTT5=
EXTT6=
EXTT7=
EXTT8=
EXTT9=
EXTT10=
EXTT11=
EXTT12=
EXTT13=
EXTT14=
EXTT15=
PLAYORDER=
